<svg xmlns="http://www.w3.org/2000/svg" width="28.798" height="27.374" viewBox="0 0 28.798 27.374">
  <g id="A_Shared_Economy" data-name="A Shared Economy" transform="translate(0.05 -12.643)">
    <path id="Path_3157" data-name="Path 3157" d="M206.646,186.1l-1.993,1.993a.421.421,0,0,0,.6.595l1.993-1.993a1.8,1.8,0,0,1,1.279-.53h4.085a1.8,1.8,0,0,1,1.279.53l1.354,1.354a.421.421,0,0,0,.3.123h5.8a.421.421,0,1,0,0-.841H215.71l-1.23-1.23a2.633,2.633,0,0,0-1.874-.776H208.52A2.634,2.634,0,0,0,206.646,186.1Z" transform="translate(-193.057 -162.945)" fill="#1F628E" stroke="#1F628E" strokeWidth="0.1"/>
    <path id="Path_3158" data-name="Path 3158" d="M165.007,250.252a.421.421,0,0,0-.595-.595l-.571.571a2.025,2.025,0,0,0,2.864,2.865l1.4-1.4a3.093,3.093,0,0,0,1.887.635h1.021a3.1,3.1,0,0,0,2.2-.913l.387-.387,1.727,1.727a.421.421,0,0,0,.6-.595l-1.727-1.727.524-.524a.421.421,0,1,0-.595-.595l-.821.821h0l-.684.684a2.26,2.26,0,0,1-1.609.666h-1.021a2.26,2.26,0,0,1-1.609-.666.421.421,0,0,0-.595,0L166.11,252.5a1.184,1.184,0,1,1-1.675-1.674Z" transform="translate(-154.092 -223.236)" fill="#1F628E" stroke="#1F628E" strokeWidth="0.1"/>
    <path id="Path_3159" data-name="Path 3159" d="M28.277,312.805h-3.8c.005-.055.008-.111.008-.167a1.758,1.758,0,0,0-.518-1.252l-.864-.864a.421.421,0,0,0-.595.595l.864.864a.928.928,0,1,1-1.313,1.313l-2.371-2.371a.421.421,0,0,0-.595.595l2.71,2.71a.928.928,0,0,1-1.313,1.313l-3.448-3.448a.421.421,0,1,0-.595.595l2.547,2.547a.928.928,0,0,1-1.314,1.312l-2.533-2.533a.421.421,0,0,0-.595.595l2.166,2.166a.928.928,0,1,1-1.313,1.313l-.676-.676a1.8,1.8,0,0,0,.017-.243,1.77,1.77,0,0,0-1.77-1.77c-.049,0-.1,0-.144.006,0-.048.006-.1.006-.144a1.77,1.77,0,0,0-1.77-1.77c-.049,0-.1,0-.145.006a1.768,1.768,0,0,0-1.763-1.914c-.049,0-.1,0-.144.006,0-.048.006-.1.006-.144A1.77,1.77,0,0,0,6,310.195l-1.356,1.356a1.773,1.773,0,0,0-.345,2.015H.421a.421.421,0,0,0,0,.841H5.145a1.763,1.763,0,0,0,.747.165c.049,0,.1,0,.144-.006,0,.048-.006.1-.006.144a1.768,1.768,0,0,0,1.77,1.769c.048,0,.1,0,.144-.006,0,.048-.006.1-.006.145a1.77,1.77,0,0,0,1.77,1.77c.049,0,.1,0,.145-.006a1.771,1.771,0,0,0,2.99,1.418.421.421,0,0,0-.584-.606.928.928,0,0,1-1.3-1.324l1.356-1.356a.928.928,0,0,1,1.313,1.313l-.1.1a.421.421,0,0,0,.595.595l.1-.1a1.787,1.787,0,0,0,.15-.171l.433.433a1.77,1.77,0,0,0,3.014-1.1,1.776,1.776,0,0,0,.512.075,1.77,1.77,0,0,0,1.726-1.377,1.769,1.769,0,0,0,2.786-1.883,1.762,1.762,0,0,0,1.118-.512,1.791,1.791,0,0,0,.2-.243h4.112a.421.421,0,1,0,0-.841Zm-23.042.654a.93.93,0,0,1,0-1.313l1.356-1.356A.928.928,0,0,1,7.9,312.1l-1.356,1.356A.929.929,0,0,1,5.235,313.459Zm1.908,1.908a.928.928,0,0,1,0-1.313L8.5,312.7a.928.928,0,0,1,1.313,1.313h0l-1.356,1.356A.93.93,0,0,1,7.143,315.367Zm3.221,1.908a.928.928,0,1,1-1.313-1.313l1.356-1.356h0a.928.928,0,1,1,1.313,1.313Z" transform="translate(0 -280.326)" fill="#1F628E" stroke="#1F628E" strokeWidth="0.1"/>
    <path id="Path_3160" data-name="Path 3160" d="M1.155,201.244H6.533a.421.421,0,0,0,.273-.1l1.069-.913a1.745,1.745,0,0,1,1.132-.417h3.22a.421.421,0,0,0,0-.841H9.007a2.587,2.587,0,0,0-1.678.619l-.951.812H1.155a.421.421,0,1,0,0,.841Z" transform="translate(-0.693 -175.83)" fill="#1F628E" stroke="#1F628E" strokeWidth="0.1"/>
    <path id="Path_3161" data-name="Path 3161" d="M206.378,62.928l-.373,1.162a.6.6,0,0,0,.81.728l1.319-.585a.239.239,0,0,1,.193,0l1.319.585a.6.6,0,0,0,.81-.728h0l-.372-1.162.821-1.008a.735.735,0,0,0-.569-1.2h-.851l-.628-1.012a.735.735,0,0,0-1.248,0l-.628,1.012h-.851a.735.735,0,0,0-.569,1.2Zm.659-1.365a.73.73,0,0,0,.624-.347l.569-.917.569.917a.73.73,0,0,0,.624.347h.686l-.716.878a.732.732,0,0,0-.13.688l.224.7-.82-.363a1.082,1.082,0,0,0-.875,0l-.82.363.224-.7a.732.732,0,0,0-.13-.688l-.716-.878Z" transform="translate(-193.87 -44.051)" fill="#1F628E" stroke="#1F628E" strokeWidth="0.1"/>
    <path id="Path_3162" data-name="Path 3162" d="M248.935,14.118a.421.421,0,0,0,.421-.421v-.584a.421.421,0,1,0-.841,0V13.7A.421.421,0,0,0,248.935,14.118Z" transform="translate(-234.574)" fill="#1F628E" stroke="#1F628E" strokeWidth="0.1"/>
    <path id="Path_3163" data-name="Path 3163" d="M182.471,41.818a.421.421,0,0,0,.6-.595l-.413-.413a.421.421,0,1,0-.595.595Z" transform="translate(-171.73 -26.424)" fill="#1F628E" stroke="#1F628E" strokeWidth="0.1"/>
    <path id="Path_3164" data-name="Path 3164" d="M308.158,41.941a.42.42,0,0,0,.3-.123l.413-.413a.421.421,0,1,0-.595-.595l-.413.413a.421.421,0,0,0,.3.718Z" transform="translate(-290.476 -26.424)" fill="#1F628E" stroke="#1F628E" strokeWidth="0.1"/>
  </g>
</svg>
