<svg xmlns="http://www.w3.org/2000/svg" width="24" height="24" viewBox="0 0 24 24">
  <g id="Group_26242" data-name="Group 26242" transform="translate(-708 -8842)">
    <circle id="Ellipse_45" data-name="Ellipse 45" cx="12" cy="12" r="12" transform="translate(708 8842)" fill="#1F628E"/>
    <path id="Icon_awesome-twitter" data-name="Icon awesome-twitter" d="M10.855,5.83c.008.107.008.215.008.322a7.007,7.007,0,0,1-7.055,7.055A7.007,7.007,0,0,1,0,12.094a5.13,5.13,0,0,0,.6.031,4.966,4.966,0,0,0,3.079-1.059,2.484,2.484,0,0,1-2.319-1.72,3.127,3.127,0,0,0,.468.038A2.623,2.623,0,0,0,2.48,9.3,2.48,2.48,0,0,1,.491,6.866V6.835a2.5,2.5,0,0,0,1.121.315A2.483,2.483,0,0,1,.844,3.834,7.049,7.049,0,0,0,5.957,6.429,2.8,2.8,0,0,1,5.9,5.86a2.482,2.482,0,0,1,4.292-1.7,4.882,4.882,0,0,0,1.574-.6,2.473,2.473,0,0,1-1.09,1.367A4.971,4.971,0,0,0,12.1,4.548,5.33,5.33,0,0,1,10.855,5.83Z" transform="translate(713.848 8845.887)" fill="#fff7ed"/>
  </g>
</svg>
